<svg width="48" height="84" viewBox="0 0 48 84" fill="none" xmlns="http://www.w3.org/2000/svg">
<path d="M41.7656 0H47.4828V21.9919H41.9257C36.9578 21.9919 32.9307 26.0191 32.9307 30.9869V31.0191V31.0174V32.7403H43.8314V51.1113H32.9307V83.8514H10.9389V51.1113H0V32.7401H10.9388V31.0251V31.0245C10.9388 13.9609 24.7143 0.114641 41.751 0.00024568L41.7619 8.18412e-05L41.7656 0ZM43.6714 3.81139H41.7656C26.837 3.96206 14.7882 16.0802 14.7502 31.0213V36.5515H3.81156V47.2997H14.7502V80.0399H29.1193V47.2997H40.02V36.5516H29.1193V31.0251V30.987C29.1193 23.9142 34.8528 18.1805 41.9256 18.1805H43.6788L43.6714 3.81139Z" fill="black"/>
</svg>