<svg width="48" height="48" viewBox="0 0 48 48" fill="none" xmlns="http://www.w3.org/2000/svg">
<path d="M-1.52588e-05 23.7414C-1.52588e-05 36.8534 10.6293 47.4828 23.7414 47.4828C36.8534 47.4828 47.4827 36.8534 47.4827 23.7414C47.4827 10.6294 36.8533 3.09636e-05 23.7414 3.09636e-05C10.6294 3.09636e-05 -1.52588e-05 10.6292 -1.52588e-05 23.7414ZM38.2907 9.1921C41.8875 12.7999 44.0123 17.6175 44.251 22.7063C44.4898 27.7951 42.8254 32.7906 39.5821 36.7192C36.3389 40.6479 31.7492 43.2284 26.7073 43.9578C21.6653 44.6873 16.5324 43.5135 12.3087 40.6652C8.08497 37.8168 5.07298 33.498 3.85962 28.5502C2.64626 23.6024 3.31845 18.3801 5.74523 13.9008C8.17201 9.42154 12.1795 6.00623 16.9869 4.32034C21.7942 2.63445 27.0571 2.79876 31.7499 4.78125C34.195 5.81448 36.4164 7.31247 38.2907 9.1921Z" fill="black"/>
<path d="M14.734 25.3848L22.1585 17.9604L22.1585 36.4147H25.324L25.324 17.9604L32.7485 25.3848L34.9869 23.1465L23.7413 11.9009L12.4957 23.1465L14.734 25.3848Z" fill="black"/>
</svg>