<svg width="48" height="46" viewBox="0 0 48 46" fill="none" xmlns="http://www.w3.org/2000/svg">
<path d="M46.2495 45.4928H36.6071C35.9251 45.4928 35.3739 44.9416 35.3739 44.2595V28.7309C35.3739 23.4052 32.6269 23.4052 31.7206 23.4052C29.282 23.4052 28.2449 25.33 27.9085 26.1616C27.7497 26.5353 27.6749 27.1706 27.6749 28.0583V44.269C27.6749 44.951 27.1237 45.5022 26.4417 45.5022H16.79C16.463 45.5022 16.1453 45.3714 15.9117 45.1379C15.6782 44.9044 15.5474 44.5866 15.5567 44.2596C15.5567 43.998 15.6875 17.9582 15.5567 15.2953C15.538 14.9589 15.6594 14.6319 15.8931 14.389C16.1267 14.1461 16.4443 14.0059 16.79 14.0059H26.4417C27.1237 14.0059 27.6749 14.5571 27.6749 15.2392V15.968C29.3007 14.5197 31.6458 13.3238 35.1402 13.3238C42.8672 13.3238 47.4828 18.6681 47.4828 27.619V44.2595C47.4828 44.9416 46.9315 45.4928 46.2495 45.4928ZM37.8405 43.0262L45.0255 43.026V27.6189C45.0255 20.0975 41.4284 15.7903 35.1496 15.7903C30.9545 15.7903 28.9176 17.8832 27.6376 19.7986C27.4881 20.3031 27.0116 20.6769 26.451 20.6769H26.3856C25.9371 20.6769 25.526 20.4339 25.3111 20.0416C25.143 19.7332 25.1056 19.3781 25.2177 19.0511V16.4631H18.0514C18.1168 21.6113 18.0514 38.2705 18.0327 43.0169H25.2083V28.0488C25.2083 26.8062 25.3391 25.9092 25.6194 25.2272C26.7033 22.5456 28.983 20.9292 31.7113 20.9292C35.5981 20.9292 37.8311 23.7697 37.8311 28.7216V43.0262H37.8406L37.8405 43.0262ZM11.455 45.4926H1.80331C1.12125 45.4926 0.570033 44.9414 0.570033 44.2593V15.2391C0.570033 14.557 1.12125 14.0058 1.80331 14.0058H11.455C12.137 14.0058 12.6883 14.557 12.6883 15.239V44.2594C12.6883 44.9414 12.137 45.4927 11.455 45.4927V45.4926ZM3.03668 43.0261H10.2217V16.4723H3.03673V43.026L3.03668 43.0261ZM6.6338 12.5108L6.56835 12.5107C2.76562 12.5107 0 9.87591 0 6.2507C0 2.63486 2.81234 0 6.69916 0C10.5206 0 13.2489 2.56005 13.3236 6.22266C13.3236 9.87591 10.5113 12.5108 6.6338 12.5108ZM6.69916 2.47601C4.16711 2.47601 2.46665 3.99899 2.46665 6.26011C2.46665 8.48379 4.14847 10.0441 6.5684 10.0441H6.63376C9.15649 10.0441 10.8569 8.52115 10.8569 6.26007C10.8102 3.97095 9.17517 2.47601 6.69916 2.47601Z" fill="black"/>
</svg>