<svg width="51" height="51" viewBox="0 0 51 51" fill="none" xmlns="http://www.w3.org/2000/svg">
<path d="M36.6896 2H14.7932C7.72775 2 2 7.72775 2 14.7932V36.6895C2 43.755 7.72775 49.4828 14.7932 49.4828H36.6895C43.755 49.4828 49.4828 43.755 49.4828 36.6895V14.7932C49.4829 7.72775 43.7551 2 36.6896 2Z" stroke="black" stroke-width="2.03036" stroke-miterlimit="10"/>
<path d="M25.7414 37.2028C32.0714 37.2028 37.2028 32.0714 37.2028 25.7414C37.2028 19.4115 32.0714 14.28 25.7414 14.28C19.4115 14.28 14.28 19.4115 14.28 25.7414C14.28 32.0714 19.4115 37.2028 25.7414 37.2028Z" stroke="black" stroke-width="2.03036" stroke-miterlimit="10"/>
<path d="M39.6588 14.2802C41.0152 14.2802 42.1148 13.1806 42.1148 11.8241C42.1148 10.4677 41.0152 9.3681 39.6588 9.3681C38.3023 9.3681 37.2027 10.4677 37.2027 11.8241C37.2027 13.1806 38.3023 14.2802 39.6588 14.2802Z" fill="black"/>
</svg>