<svg width="52" height="79" viewBox="0 0 52 79" fill="none" xmlns="http://www.w3.org/2000/svg">
<path d="M25.3249 2L2 28.063H19.1054L19.3981 48.6822H31.5947L31.5462 28.063H48.6498L25.3249 2Z" fill="black"/>
<path d="M25.3249 2L2 28.063H19.1054L19.3981 48.6822H31.5947L31.5462 28.063H48.6498L25.3249 2Z" stroke="black" stroke-width="3.59094" stroke-linecap="round" stroke-linejoin="round"/>
<path d="M25.9336 76.458C24.2329 76.458 22.6019 75.7824 21.3994 74.5799C20.1968 73.3773 19.5213 71.7463 19.5213 70.0457V64.9155C19.5213 63.2149 20.1969 61.5839 21.3995 60.3814C22.602 59.1789 24.233 58.5033 25.9336 58.5033C27.6343 58.5033 29.2653 59.1789 30.4678 60.3814C31.6704 61.584 32.3459 63.215 32.3459 64.9157V70.0457C32.3459 71.7463 31.6704 73.3773 30.4678 74.5799C29.2653 75.7824 27.6343 76.458 25.9336 76.458Z" stroke="black" stroke-width="3.59094" stroke-linecap="round" stroke-linejoin="round"/>
<path d="M4.05204 58.5572H14.3117" stroke="black" stroke-width="3.59094" stroke-linecap="round" stroke-linejoin="round"/>
<path d="M9.18187 58.5572V76.5119" stroke="black" stroke-width="3.59094" stroke-linecap="round" stroke-linejoin="round"/>
<path d="M38.1647 76.458V58.5033H45.0111C45.5984 58.5032 46.18 58.6188 46.7226 58.8435C47.2652 59.0682 47.7582 59.3976 48.1734 59.8129C48.5887 60.2282 48.9181 60.7212 49.1427 61.2638C49.3674 61.8065 49.4829 62.388 49.4828 62.9753C49.4829 63.5626 49.3673 64.1441 49.1427 64.6867C48.918 65.2293 48.5886 65.7223 48.1734 66.1376C47.7581 66.5529 47.2651 66.8822 46.7225 67.1069C46.1799 67.3316 45.5984 67.4472 45.0111 67.4471H38.1647" stroke="black" stroke-width="3.59094" stroke-linecap="round" stroke-linejoin="round"/>
</svg>
